<svg id="Layer_1" data-name="Layer 1" xmlns="http://www.w3.org/2000/svg" xmlns:xlink="http://www.w3.org/1999/xlink" viewBox="0 0 156.95 31.47"><defs><style>.cls-1{fill:none;}.cls-2{clip-path:url(#clip-path);}.cls-3,.cls-4{fill:#fff;}.cls-4{font-size:24px;font-family:System Font;}.cls-5{white-space:pre;}</style><clipPath id="clip-path" transform="translate(-0.24 2.46)"><polyline class="cls-1" points="-15 1194 360 1194 360 -20 -15 -20 -15 1194"/></clipPath></defs><title>small_victory_navbar_logo</title><g class="cls-2"><path class="cls-3" d="M9,0.49A8.52,8.52,0,0,1,15.17,3a8.44,8.44,0,0,1,2.56,6.2,8.44,8.44,0,0,1-2.56,6.2A8.52,8.52,0,0,1,9,18a8.41,8.41,0,0,1-6.17-2.56A8.48,8.48,0,0,1,.24,9.24,8.48,8.48,0,0,1,2.78,3,8.41,8.41,0,0,1,9,.49H9Zm3.73,8.44a2.71,2.71,0,0,1-1.11,2.34,4.55,4.55,0,0,1-2.74.8,4.64,4.64,0,0,1-2.15-.51A2.58,2.58,0,0,1,5.15,9.07l-1.37.17a4.12,4.12,0,0,0,1.46,3.28A5.42,5.42,0,0,0,8.9,13.78a5.07,5.07,0,0,0,3.73-1.4A4.56,4.56,0,0,0,14,9ZM6.61,7.85A1.38,1.38,0,0,0,8,6.44a1.4,1.4,0,0,0-.4-1,1.37,1.37,0,0,0-1-.4,1.37,1.37,0,0,0-1,.4,1.4,1.4,0,0,0-.4,1A1.38,1.38,0,0,0,6.61,7.85Zm4.76,0a1.38,1.38,0,0,0,1.41-1.41,1.4,1.4,0,0,0-.4-1,1.47,1.47,0,0,0-2,0,1.4,1.4,0,0,0-.4,1A1.38,1.38,0,0,0,11.37,7.85Z" transform="translate(-0.24 2.46)"/><text class="cls-4" transform="translate(17.73 20.46)"><tspan class="cls-5"> small vic</tspan><tspan x="98.27" y="0">t</tspan><tspan x="105.7" y="0">or</tspan><tspan x="127.2" y="0">y</tspan></text></g></svg>