<?xml version="1.0" encoding="utf-8"?>
<!-- Generator: Adobe Illustrator 19.2.1, SVG Export Plug-In . SVG Version: 6.00 Build 0)  -->
<svg version="1.1" id="Layer_1" xmlns="http://www.w3.org/2000/svg" xmlns:xlink="http://www.w3.org/1999/xlink" x="0px" y="0px"
	 viewBox="0 0 218 37.8" style="enable-background:new 0 0 218 37.8;" xml:space="preserve">
<style type="text/css">
	.st0{display:none;clip-path:url(#SVGID_2_);fill:#3C78D8;}
	.st1{clip-path:url(#SVGID_2_);}
	.st2{fill:#3C78D8;}
	.st3{font-family:'.SFNSDisplay-Regular';}
	.st4{font-size:40px;}
</style>
<g>
	<defs>
		<rect id="SVGID_1_" x="-79" y="-236.2" width="375" height="1214"/>
	</defs>
	<clipPath id="SVGID_2_">
		<use xlink:href="#SVGID_1_"  style="overflow:visible;"/>
	</clipPath>
	<path class="st0" d="M108.9-84.5c8.1,0,15,2.8,20.7,8.5c5.7,5.7,8.5,12.6,8.5,20.7c0,8.1-2.8,15-8.5,20.7
		c-5.7,5.7-12.7,8.5-20.7,8.5c-8,0-14.9-2.8-20.6-8.5c-5.6-5.7-8.5-12.6-8.5-20.7c0-8.1,2.8-15,8.5-20.7
		C94-81.7,100.9-84.5,108.9-84.5L108.9-84.5z M121.3-56.4c0,3.4-1.2,6-3.7,7.8c-2.5,1.8-5.5,2.7-9.1,2.7c-2.5,0-4.9-0.6-7.2-1.7
		c-3.4-1.7-5.1-4.4-5.1-8.3l-4.6,0.6c0,4.5,1.6,8.1,4.9,10.9c3.3,2.8,7.3,4.2,12.2,4.2c5.1,0,9.3-1.6,12.4-4.7
		c3.1-3.1,4.7-6.8,4.7-11.2L121.3-56.4z M101.1-60c1.4,0,2.5-0.4,3.4-1.3c0.9-0.9,1.3-2,1.3-3.4c0-1.4-0.4-2.6-1.3-3.5
		c-0.9-0.9-2-1.3-3.4-1.3c-1.4,0-2.5,0.4-3.4,1.3c-0.9,0.9-1.3,2-1.3,3.5c0,1.4,0.4,2.5,1.3,3.4C98.6-60.4,99.7-60,101.1-60z
		 M116.9-60c1.4,0,2.5-0.4,3.4-1.3c0.9-0.9,1.3-2,1.3-3.4c0-1.4-0.4-2.6-1.3-3.5c-0.9-0.9-2-1.3-3.4-1.3c-1.4,0-2.5,0.4-3.4,1.3
		c-0.9,0.9-1.3,2-1.3,3.5c0,1.4,0.4,2.5,1.3,3.4C114.4-60.4,115.6-60,116.9-60z"/>
	<g class="st1">
		<text transform="matrix(1 0 0 1 -0.9512 29.8283)"><tspan x="0" y="0" class="st2 st3 st4">sma</tspan><tspan x="74.3" y="0" class="st2 st3 st4">ll</tspan><tspan x="91.7" y="0" class="st2 st3 st4"> v</tspan><tspan x="122" y="0" class="st2 st3 st4">i</tspan><tspan x="130.7" y="0" class="st2 st3 st4">c</tspan><tspan x="151.7" y="0" class="st2 st3 st4">t</tspan><tspan x="163.9" y="0" class="st2 st3 st4">or</tspan><tspan x="199.2" y="0" class="st2 st3 st4">y</tspan></text>
	</g>
</g>
</svg>
